<svg width="24" height="25" viewBox="0 0 24 25" fill="none" xmlns="http://www.w3.org/2000/svg">
<g clip-path="url(#clip0_10222_32804)">
<path d="M23.3143 6.3136C23.3143 5.22797 22.4312 4.34485 21.3456 4.34485C20.7882 4.34485 20.2845 4.57812 19.926 4.95166L12.243 0.515915C12.098 0.432236 11.9195 0.432236 11.7744 0.515915L4.09132 4.95166C3.7328 4.57812 3.22926 4.34485 2.67188 4.34485C1.58625 4.34485 0.703125 5.22797 0.703125 6.3136C0.703125 7.23755 1.34308 8.01447 2.20313 8.22541V17.0938C2.20313 17.2611 2.29249 17.4159 2.43751 17.4997L10.1181 21.9342C10.0672 22.1089 10.0393 22.2934 10.0393 22.4844C10.0393 23.5699 10.9225 24.4532 12.0081 24.4532C13.0935 24.4532 13.9767 23.5699 13.9767 22.4844C13.9767 22.2936 13.949 22.1094 13.8981 21.9347L21.58 17.4997C21.725 17.4161 21.8143 17.2611 21.8143 17.0938V8.22541C22.6744 8.01447 23.3143 7.23755 23.3143 6.3136ZM1.64063 6.3136C1.64063 5.74487 2.10315 5.28235 2.67188 5.28235C3.24042 5.28235 3.70295 5.74487 3.70295 6.3136C3.70295 6.88215 3.24042 7.34485 2.67188 7.34485C2.10315 7.34485 1.64063 6.88215 1.64063 6.3136ZM12.0081 23.5157C11.4394 23.5157 10.9768 23.0532 10.9768 22.4844C10.9768 21.9159 11.4394 21.4532 12.0081 21.4532C12.5766 21.4532 13.0393 21.9159 13.0393 22.4844C13.0393 23.0532 12.5766 23.5157 12.0081 23.5157ZM13.4286 21.1234C13.0699 20.7493 12.566 20.5157 12.0081 20.5157C11.4505 20.5157 10.9466 20.7491 10.5881 21.1229L3.14063 16.8232V8.22541C4.0005 8.01447 4.64045 7.23755 4.64045 6.3136C4.64045 6.12244 4.61262 5.93768 4.56153 5.76264L12.0086 1.46312L19.4559 5.76264C19.4048 5.93768 19.377 6.12226 19.377 6.3136C19.377 7.23755 20.017 8.01447 20.8768 8.22541V16.8232L13.4286 21.1234ZM21.3456 7.34485C20.777 7.34485 20.3143 6.88215 20.3143 6.3136C20.3143 5.74487 20.777 5.28235 21.3456 5.28235C21.9143 5.28235 22.3768 5.74487 22.3768 6.3136C22.3768 6.88215 21.9143 7.34485 21.3456 7.34485Z" fill="#787E99"/>
<path d="M18.4305 7.72482L12.243 4.1526C12.098 4.06892 11.9195 4.06892 11.7744 4.1526L5.58691 7.72482C5.44189 7.80868 5.35254 7.96341 5.35254 8.13076V15.2754C5.35254 15.4427 5.44189 15.5976 5.58691 15.6813L11.7744 19.2537C11.8469 19.2955 11.9277 19.3165 12.0086 19.3165C12.0897 19.3165 12.1705 19.2955 12.243 19.2537L18.4305 15.6813C18.5755 15.5976 18.6649 15.4427 18.6649 15.2754V8.13076C18.6649 7.96341 18.5755 7.80868 18.4305 7.72482ZM12.0086 5.09981L17.2586 8.13076L12.0086 11.1619L6.75879 8.13076L12.0086 5.09981ZM12.4774 18.0359V15.9219C12.4774 15.663 12.2675 15.4532 12.0086 15.4532C11.7499 15.4532 11.5401 15.663 11.5401 15.9219V18.0359L6.29004 15.0047V8.94266L11.7744 12.1091C11.8469 12.1509 11.9277 12.1719 12.0086 12.1719C12.0897 12.1719 12.1705 12.1509 12.243 12.1091L17.7274 8.94266V15.0047L12.4774 18.0359Z" fill="#787E99"/>
<path d="M12.0084 13.3438C11.8846 13.3438 11.7641 13.3938 11.6764 13.4811C11.5892 13.5683 11.5391 13.6891 11.5391 13.8125C11.5391 13.9358 11.5892 14.0566 11.6764 14.1438C11.7641 14.2311 11.8846 14.2813 12.0084 14.2813C12.1316 14.2813 12.2526 14.2311 12.3398 14.1438C12.4269 14.0566 12.4771 13.9358 12.4771 13.8125C12.4771 13.6891 12.4269 13.5683 12.3398 13.4811C12.2526 13.3938 12.1316 13.3438 12.0084 13.3438Z" fill="#787E99"/>
</g>
<defs>
<clipPath id="clip0_10222_32804">
<rect width="24" height="24" fill="white" transform="translate(0 0.5)"/>
</clipPath>
</defs>
</svg>
