<svg width="24" height="24" viewBox="0 0 24 24" fill="none" xmlns="http://www.w3.org/2000/svg">
<g clip-path="url(#clip0_12768_46745)">
<path d="M12 24C18.6274 24 24 18.6274 24 12C24 5.37258 18.6274 0 12 0C5.37258 0 0 5.37258 0 12C0 18.6274 5.37258 24 12 24Z" fill="#2D374B"/>
<path d="M13.82 11.2423L14.9808 9.27265L18.1097 14.1459L18.1111 15.0811L18.1009 8.64556C18.0935 8.48825 18.01 8.34433 17.8767 8.25947L12.2436 5.01925C12.1119 4.9545 11.9448 4.95519 11.8133 5.02126C11.7955 5.03019 11.7788 5.03985 11.7628 5.0504L11.7432 5.06276L6.27541 8.23131L6.25417 8.24093C6.2269 8.25349 6.19933 8.26943 6.17343 8.28797C6.06979 8.36233 6.00092 8.47226 5.97865 8.59558C5.97531 8.61427 5.97286 8.6333 5.97168 8.65248L5.98026 13.8968L8.89463 9.37973C9.26154 8.78075 10.061 8.58783 10.8031 8.59832L11.6741 8.62133L6.54206 16.8517L7.14703 17.2L12.3406 8.62967L14.6362 8.62133L9.45599 17.408L11.6147 18.6496L11.8726 18.7979C11.9817 18.8423 12.1103 18.8445 12.2203 18.8048L17.9326 15.4945L16.8405 16.1273L13.82 11.2423ZM14.2629 17.6211L12.0826 14.1991L13.4135 11.9406L16.2769 16.4539L14.2629 17.6211Z" fill="#2D374B"/>
<path d="M12.083 14.1992L14.2633 17.6212L16.2774 16.454L13.414 11.9407L12.083 14.1992Z" fill="#28A0F0"/>
<path d="M18.1114 15.0812L18.11 14.146L14.9811 9.27271L13.8203 11.2424L16.8408 16.1274L17.9329 15.4945C18.04 15.4076 18.1048 15.2799 18.1116 15.1421L18.1114 15.0812Z" fill="#28A0F0"/>
<path d="M5.00005 15.9631L6.54226 16.8517L11.6743 8.62131L10.8033 8.5983C10.0612 8.58781 9.26179 8.78073 8.89483 9.37971L5.98046 13.8968L5 15.4033V15.9631H5.00005Z" fill="white"/>
<path d="M14.6366 8.62134L12.3411 8.62968L7.14746 17.2001L8.96275 18.2453L9.45642 17.408L14.6366 8.62134Z" fill="white"/>
<path d="M19.0792 8.60955C19.06 8.12947 18.8001 7.68996 18.3929 7.4341L12.686 4.15223C12.2832 3.9494 11.7801 3.94916 11.3766 4.15209C11.329 4.17612 5.82678 7.36719 5.82678 7.36719C5.75065 7.40369 5.67732 7.4472 5.6083 7.49654C5.24482 7.75706 5.02325 8.16184 5.00049 8.6066V15.4034L5.98095 13.8969L5.97237 8.65257C5.97354 8.63339 5.97595 8.61455 5.97933 8.59591C6.00146 8.47249 6.07037 8.36242 6.17412 8.28806C6.20002 8.26952 11.7961 5.03028 11.8139 5.02135C11.9455 4.95528 12.1126 4.95459 12.2443 5.01934L17.8774 8.25956C18.0107 8.34442 18.0942 8.48834 18.1016 8.64565V15.1421C18.0948 15.2799 18.0403 15.4076 17.9332 15.4946L16.8411 16.1274L16.2776 16.4539L14.2635 17.6212L12.221 18.8049C12.111 18.8446 11.9823 18.8424 11.8732 18.798L9.45662 17.4081L8.96296 18.2453L11.1347 19.4957C11.2065 19.5365 11.2705 19.5727 11.323 19.6022C11.4044 19.6479 11.4597 19.6783 11.4793 19.6878C11.6337 19.7627 11.8557 19.8064 12.0559 19.8064C12.2394 19.8064 12.4183 19.7727 12.5876 19.7064L18.5203 16.2706C18.8608 16.0068 19.0611 15.6089 19.0792 15.1779V8.60955Z" fill="#96BEDC"/>
</g>
<defs>
<clipPath id="clip0_12768_46745">
<rect width="24" height="24" fill="white"/>
</clipPath>
</defs>
</svg>
