<svg width="65" height="65" viewBox="0 0 65 65" fill="none" xmlns="http://www.w3.org/2000/svg">
<path d="M32.0382 58.5373C32.4485 58.0633 32.6333 57.4357 32.5446 56.8155L32.1777 54.2473C31.7213 51.0555 27.8403 50.0968 27.4015 49.9986L26.8849 49.8848C26.0182 49.6953 24.4047 49.3432 23.6498 49.1102C23.4115 49.0364 22.3396 48.2578 22.1338 47.9166C23.4629 47.2198 24.4738 46.0857 25.1786 44.7322H26.0399C26.8923 44.7322 27.6906 44.3551 28.2303 43.6976C28.7699 43.0395 28.9859 42.1837 28.8227 41.3495C28.5844 40.1342 27.5796 39.2336 26.3737 39.0894V37.048C26.3737 35.5618 25.7948 34.165 24.7446 33.1135C23.6952 32.062 22.297 31.4831 20.8094 31.4831H17.1715C15.6832 31.4831 14.2864 32.062 13.2362 33.1135C12.1854 34.165 11.6065 35.5625 11.6065 37.048L11.6085 39.0894C10.4013 39.233 9.39583 40.1342 9.1575 41.3509C8.99432 42.1837 9.21031 43.0395 9.75063 43.6976C10.2903 44.3544 11.0885 44.7322 11.941 44.7322H12.7934C13.4983 46.083 14.5119 47.2198 15.8471 47.9179C15.6406 48.2598 14.5816 49.0337 14.3331 49.1109C13.5761 49.3438 11.9633 49.6966 11.0967 49.8855L10.5814 49.9993C10.1406 50.0974 6.25958 51.0562 5.80391 54.248L5.43828 56.8141C5.34958 57.435 5.53443 58.0633 5.94542 58.5373C6.35641 59.0112 6.95427 59.2841 7.5826 59.2841H30.3996C31.0286 59.2841 31.6258 59.0119 32.0382 58.5373ZM26.8273 41.7402C26.8734 41.9772 26.8125 42.2196 26.6588 42.4078C26.5071 42.592 26.2823 42.6976 26.0413 42.6976H25.9742C26.1151 42.1884 26.222 41.6657 26.2938 41.1383C26.5613 41.2283 26.7711 41.4531 26.8273 41.7402ZM17.1721 33.517H20.8101C21.754 33.517 22.6403 33.884 23.3065 34.5516C23.88 35.1258 24.2158 35.8658 24.3025 36.6614L23.7256 36.5382C20.5867 35.8692 17.403 35.8665 14.2607 36.5355L13.6791 36.6594C13.7657 35.8651 14.1016 35.1258 14.6751 34.5516C15.342 33.884 16.229 33.517 17.1721 33.517ZM11.9423 42.6976C11.7006 42.6976 11.4758 42.592 11.3248 42.4078C11.1705 42.2196 11.1089 41.9772 11.1556 41.7416C11.2118 41.4551 11.4196 41.2304 11.6851 41.1396C11.7555 41.665 11.8591 42.1878 11.9999 42.6976H11.9423ZM13.6418 40.3711V38.7468L14.6845 38.5247C17.5459 37.9181 20.4452 37.9181 23.3018 38.5274L24.3424 38.7488L24.3438 40.2939C24.1061 43.4471 22.3593 46.6287 18.9915 46.6287C15.623 46.6287 13.8761 43.4471 13.6418 40.3711ZM18.9915 48.6627C19.4119 48.6627 19.8073 48.6187 20.1906 48.5544C20.3971 48.987 20.6469 49.3899 20.9665 49.7359C20.4262 50.197 19.7363 50.4685 18.9935 50.4685C18.248 50.4685 17.5554 50.1956 17.0137 49.7311C17.3272 49.3885 17.5764 48.987 17.7849 48.553C18.1708 48.618 18.5683 48.6627 18.9915 48.6627ZM7.45193 57.1032L7.81891 54.5364C8.08635 52.6636 10.9985 51.9899 11.0296 51.9831C11.0296 51.9831 15.1659 50.9424 15.2871 50.8937C16.2337 51.91 17.5608 52.5038 18.9935 52.5038C20.4262 52.5038 21.7519 51.9107 22.6992 50.895C22.8197 50.9431 26.9546 51.9831 26.9546 51.9831C26.9844 51.9899 29.8966 52.6636 30.164 54.5364L30.531 57.1019C30.531 57.1032 30.3996 57.2501 30.3996 57.2501H7.5826L7.45193 57.1032Z" fill="#787E99"/>
<path d="M15.6216 26.1733H27.0725L30.4971 31.263C31.1383 32.1831 31.7992 32.2698 32.548 32.3091C33.4079 32.3544 34.1101 31.8378 34.5224 31.1221L37.3722 26.1727H49.5212C52.1482 26.1727 54.2851 24.0351 54.2851 21.4087V10.4792C54.2851 7.85282 52.1482 5.71527 49.5212 5.71527H15.6216C12.9945 5.71527 10.8577 7.85282 10.8577 10.4792V21.4094C10.8577 24.0358 12.9945 26.1733 15.6216 26.1733ZM12.8923 10.4792C12.8923 8.97475 14.1165 7.74991 15.6216 7.74991H49.5212C51.0263 7.74991 52.2505 8.97475 52.2505 10.4792V21.4094C52.2505 22.9139 51.0263 24.1387 49.5212 24.1387H36.7845C36.4209 24.1387 36.0844 24.3337 35.903 24.6486L32.7593 30.1065C32.678 30.248 32.5474 30.2744 32.4769 30.2758C32.4052 30.2731 32.2752 30.2623 32.1844 30.1262L28.4571 24.5876C28.2682 24.3066 27.952 24.1387 27.6134 24.1387H15.6216C14.1165 24.1387 12.8923 22.9139 12.8923 21.4094V10.4792Z" fill="#787E99"/>
<path d="M17.931 15.6896H29.1379" stroke="#787E99" stroke-width="2" stroke-linecap="round"/>
<path d="M33.6206 15.6896H40.3447" stroke="#787E99" stroke-width="2" stroke-linecap="round"/>
<path d="M38.5951 41.5919V47.9673C38.5951 48.5286 39.0501 48.9843 39.6121 48.9843C40.1734 48.9843 40.6291 48.5286 40.6291 47.9673V41.5919C40.6291 37.2213 44.2027 33.5238 48.4595 33.517C52.6899 33.5238 56.2636 37.2213 56.2636 41.5919V47.9673C56.2636 48.5286 56.7193 48.9843 57.2806 48.9843C57.8425 48.9843 58.2975 48.5286 58.2975 47.9673V41.5919C58.2975 36.1211 53.7943 31.4919 48.4297 31.4831C43.0984 31.4919 38.5951 36.1211 38.5951 41.5919Z" fill="#787E99"/>
<path d="M59.5833 57.5311V55.4849C59.5833 52.346 57.1993 49.8882 54.1558 49.8882H51.6086L51.6601 47.7425C53.0291 46.9544 54.0705 45.6835 54.5357 44.1113C54.99 42.5723 54.8742 40.9432 54.2086 39.522C53.9561 38.9831 53.4144 38.6256 52.8111 38.5924L50.4786 38.243C49.1258 38.0433 47.7567 38.0433 46.4107 38.2417L44.0544 38.5924C43.4491 38.6256 42.9061 38.9844 42.6542 39.5234C42.2608 40.363 42.0536 41.2994 42.0536 42.2317C42.0536 44.1086 42.8749 45.8819 44.307 47.0972C44.3625 47.1446 44.4275 47.1771 44.4843 47.2225C44.4843 47.2232 44.4837 47.2238 44.4837 47.2245V49.8882H42.0001C38.9566 49.8882 36.5726 52.346 36.5726 55.4849V57.5311C36.5726 58.498 37.3594 59.2847 38.3263 59.2847H57.8297C58.7965 59.284 59.5833 58.498 59.5833 57.5311ZM44.0889 42.2317C44.0889 41.6636 44.1946 41.1152 44.4051 40.5959L46.7106 40.2539C47.8583 40.082 49.0249 40.0806 50.1779 40.2553L52.4577 40.5959C52.8294 41.5147 52.8748 42.5479 52.5843 43.5344C52.1212 45.1012 50.8178 46.2427 49.1826 46.5129C47.8752 46.7289 46.6124 46.3843 45.6232 45.546C44.6482 44.7186 44.0889 43.5094 44.0889 42.2317ZM48.446 48.6085C48.8001 48.6085 49.5753 48.5049 49.6072 48.4988L49.5456 51.0555C49.3607 51.5775 48.8908 51.977 48.339 52.0684C47.4066 52.2261 46.6998 51.6073 46.5183 50.8923V48.295C47.1392 48.49 47.7858 48.6085 48.446 48.6085ZM57.5494 57.2501H38.6086V55.4849C38.6086 53.453 40.0677 51.9221 42.0015 51.9221H44.7308C45.2908 53.2573 46.586 54.1301 48.0431 54.1301C48.2523 54.1301 48.4642 54.1132 48.6782 54.0759C49.8915 53.8755 50.8781 53.04 51.352 51.9228H54.1558C56.0902 51.9228 57.5487 53.4537 57.5487 55.4856V57.2501H57.5494Z" fill="#787E99"/>
</svg>
