<svg width="65" height="65" viewBox="0 0 65 65" fill="none" xmlns="http://www.w3.org/2000/svg">
<path d="M32.0382 58.5373C32.4486 58.0633 32.6334 57.4356 32.5447 56.8154L32.1777 54.2473C31.7214 51.0555 27.8403 50.0967 27.4016 49.9986L26.885 49.8848C26.0183 49.6952 24.4048 49.3431 23.6499 49.1102C23.4115 49.0364 22.3397 48.2578 22.1339 47.9165C23.463 47.2198 24.4739 46.0857 25.1787 44.7322H26.04C26.8924 44.7322 27.6907 44.3551 28.2303 43.6976C28.77 43.0395 28.9859 42.1837 28.8228 41.3495C28.5844 40.1341 27.5796 39.2336 26.3738 39.0894V37.048C26.3738 35.5618 25.7949 34.165 24.7447 33.1134C23.6952 32.0619 22.297 31.483 20.8095 31.483H17.1715C15.6833 31.483 14.2865 32.0619 13.2363 33.1134C12.1855 34.165 11.6066 35.5625 11.6066 37.048L11.6086 39.0894C10.4014 39.2329 9.39589 40.1341 9.15756 41.3508C8.99438 42.1837 9.21037 43.0395 9.75069 43.6976C10.2903 44.3544 11.0886 44.7322 11.9411 44.7322H12.7935C13.4983 46.083 14.5119 47.2198 15.8471 47.9179C15.6406 48.2598 14.5817 49.0337 14.3332 49.1109C13.5762 49.3438 11.9634 49.6966 11.0967 49.8855L10.5815 49.9992C10.1407 50.0974 6.25964 51.0562 5.80397 54.2479L5.43834 56.8141C5.34964 57.435 5.53449 58.0633 5.94548 58.5373C6.35647 59.0112 6.95433 59.2841 7.58267 59.2841H30.3997C31.0287 59.2841 31.6259 59.0119 32.0382 58.5373ZM26.8274 41.7402C26.8734 41.9771 26.8125 42.2195 26.6588 42.4078C26.5071 42.5919 26.2824 42.6976 26.0413 42.6976H25.9743C26.1151 42.1884 26.2221 41.6657 26.2939 41.1382C26.5613 41.2283 26.7712 41.4531 26.8274 41.7402ZM17.1722 33.517H20.8102C21.754 33.517 22.6403 33.884 23.3066 34.5516C23.8801 35.1257 24.2159 35.8658 24.3026 36.6614L23.7257 36.5381C20.5867 35.8692 17.4031 35.8665 14.2607 36.5354L13.6791 36.6593C13.7658 35.8651 14.1016 35.1257 14.6751 34.5516C15.342 33.884 16.229 33.517 17.1722 33.517ZM11.9424 42.6976C11.7007 42.6976 11.4759 42.5919 11.3249 42.4078C11.1705 42.2195 11.1089 41.9771 11.1556 41.7415C11.2118 41.4551 11.4197 41.2303 11.6851 41.1396C11.7555 41.665 11.8591 42.1877 12 42.6976H11.9424ZM13.6419 40.3711V38.7468L14.6846 38.5247C17.5459 37.918 20.4452 37.918 23.3018 38.5274L24.3425 38.7488L24.3439 40.2939C24.1062 43.4471 22.3593 46.6287 18.9915 46.6287C15.623 46.6287 13.8762 43.4471 13.6419 40.3711ZM18.9915 48.6627C19.412 48.6627 19.8074 48.6187 20.1906 48.5543C20.3971 48.987 20.647 49.3899 20.9666 49.7358C20.4263 50.1969 19.7363 50.4685 18.9936 50.4685C18.2481 50.4685 17.5554 50.1956 17.0138 49.7311C17.3272 49.3885 17.5764 48.987 17.785 48.553C18.1709 48.618 18.5683 48.6627 18.9915 48.6627ZM7.45199 57.1032L7.81897 54.5364C8.08642 52.6636 10.9986 51.9899 11.0297 51.9831C11.0297 51.9831 15.166 50.9424 15.2872 50.8937C16.2338 51.91 17.5608 52.5038 18.9936 52.5038C20.4263 52.5038 21.752 51.9106 22.6992 50.895C22.8198 50.9431 26.9547 51.9831 26.9547 51.9831C26.9845 51.9899 29.8966 52.6636 30.1641 54.5364L30.5311 57.1018C30.5311 57.1032 30.3997 57.2501 30.3997 57.2501H7.58267L7.45199 57.1032Z" fill="#657795"/>
<path d="M15.6217 26.1733H27.0725L30.4972 31.263C31.1384 32.1831 31.7992 32.2698 32.5481 32.3091C33.408 32.3544 34.1101 31.8378 34.5224 31.1221L37.3723 26.1727H49.5212C52.1483 26.1727 54.2852 24.0351 54.2852 21.4087V10.4792C54.2852 7.85282 52.1483 5.71527 49.5212 5.71527H15.6217C12.9946 5.71527 10.8577 7.85282 10.8577 10.4792V21.4094C10.8577 24.0358 12.9946 26.1733 15.6217 26.1733ZM12.8923 10.4792C12.8923 8.97475 14.1165 7.74991 15.6217 7.74991H49.5212C51.0264 7.74991 52.2505 8.97475 52.2505 10.4792V21.4094C52.2505 22.9139 51.0264 24.1387 49.5212 24.1387H36.7846C36.421 24.1387 36.0845 24.3337 35.903 24.6486L32.7593 30.1065C32.6781 30.248 32.5474 30.2744 32.477 30.2758C32.4052 30.2731 32.2752 30.2623 32.1845 30.1262L28.4571 24.5876C28.2682 24.3066 27.952 24.1387 27.6135 24.1387H15.6217C14.1165 24.1387 12.8923 22.9139 12.8923 21.4094V10.4792Z" fill="#657795"/>
<path d="M17.931 15.6896H29.1379" stroke="#657795" stroke-width="2" stroke-linecap="round"/>
<path d="M33.6207 15.6896H40.3448" stroke="#657795" stroke-width="2" stroke-linecap="round"/>
<path d="M38.5951 41.5919V47.9673C38.5951 48.5286 39.0501 48.9843 39.6121 48.9843C40.1734 48.9843 40.6291 48.5286 40.6291 47.9673V41.5919C40.6291 37.2213 44.2027 33.5238 48.4596 33.517C52.69 33.5238 56.2636 37.2213 56.2636 41.5919V47.9673C56.2636 48.5286 56.7193 48.9843 57.2806 48.9843C57.8426 48.9843 58.2976 48.5286 58.2976 47.9673V41.5919C58.2976 36.1211 53.7943 31.4918 48.4298 31.483C43.0984 31.4918 38.5951 36.1211 38.5951 41.5919Z" fill="#657795"/>
<path d="M59.5833 57.5311V55.4849C59.5833 52.346 57.1993 49.8881 54.1558 49.8881H51.6087L51.6601 47.7425C53.0292 46.9543 54.0705 45.6835 54.5357 44.1113C54.99 42.5723 54.8742 40.9432 54.2087 39.522C53.9561 38.983 53.4144 38.6255 52.8112 38.5924L50.4786 38.243C49.1258 38.0433 47.7567 38.0433 46.4107 38.2416L44.0544 38.5924C43.4491 38.6255 42.9061 38.9844 42.6542 39.5234C42.2608 40.3629 42.0537 41.2993 42.0537 42.2317C42.0537 44.1086 42.875 45.8818 44.307 47.0972C44.3625 47.1446 44.4275 47.1771 44.4844 47.2225C44.4844 47.2232 44.4837 47.2238 44.4837 47.2245V49.8881H42.0002C38.9567 49.8881 36.5727 52.346 36.5727 55.4849V57.5311C36.5727 58.4979 37.3594 59.2847 38.3263 59.2847H57.8297C58.7966 59.284 59.5833 58.4979 59.5833 57.5311ZM44.089 42.2317C44.089 41.6636 44.1946 41.1152 44.4052 40.5959L46.7106 40.2539C47.8583 40.082 49.0249 40.0806 50.178 40.2553L52.4577 40.5959C52.8294 41.5147 52.8748 42.5479 52.5843 43.5344C52.1212 45.1012 50.8178 46.2427 49.1827 46.5129C47.8752 46.7289 46.6125 46.3842 45.6232 45.546C44.6482 44.7186 44.089 43.5093 44.089 42.2317ZM48.446 48.6085C48.8001 48.6085 49.5754 48.5049 49.6072 48.4988L49.5456 51.0554C49.3607 51.5775 48.8908 51.977 48.339 52.0684C47.4067 52.2261 46.6998 51.6073 46.5183 50.8923V48.295C47.1392 48.49 47.7858 48.6085 48.446 48.6085ZM57.5494 57.2501H38.6087V55.4849C38.6087 53.453 40.0678 51.9221 42.0015 51.9221H44.7308C45.2908 53.2573 46.5861 54.1301 48.0431 54.1301C48.2524 54.1301 48.4643 54.1131 48.6782 54.0759C49.8916 53.8755 50.8781 53.04 51.352 51.9228H54.1558C56.0903 51.9228 57.5487 53.4537 57.5487 55.4856V57.2501H57.5494Z" fill="#657795"/>
</svg>
