<svg width="51" height="51" viewBox="0 0 51 51" fill="none" xmlns="http://www.w3.org/2000/svg">
<path d="M14.7422 35.192C14.7422 38.1006 17.1029 40.4613 20.0115 40.4613H38.0807C39.027 40.4613 39.9434 40.7502 40.7203 41.308L48.9381 47.165C49.2469 47.3842 49.6354 47.4141 49.974 47.2348C50.3127 47.0654 50.5119 46.7267 50.5119 46.3482V20.4996C50.5119 17.591 48.1512 15.2303 45.2426 15.2303H36.2578V4.64178C36.2578 4.09393 35.8096 3.64569 35.2617 3.64569H5.76738C2.85879 3.64569 0.498047 6.01639 0.498047 8.91503V34.7637C0.498047 35.1422 0.697266 35.4709 1.03594 35.6502C1.37461 35.8295 1.76309 35.7996 2.07188 35.5805L10.2896 29.7234C11.0666 29.1756 11.973 28.8767 12.9293 28.8767H14.7422L14.7322 29.4047V35.192H14.7422ZM36.2578 23.6074V17.2324H45.2326C47.0355 17.2324 48.5098 18.7066 48.5098 20.5096V44.4258L41.8658 39.6844C40.7502 38.8875 39.4453 38.4691 38.0707 38.4691H20.0115C18.2086 38.4691 16.7344 36.9949 16.7344 35.192V29.3947C16.7344 29.3848 16.7344 29.3748 16.7344 29.3748L16.7244 28.8668H30.9885C33.8971 28.8767 36.2578 26.506 36.2578 23.6074ZM12.9193 26.8846C11.5547 26.8846 10.2398 27.3029 9.12422 28.0998L2.49023 32.8312V8.91503C2.49023 7.1121 3.96445 5.63788 5.76738 5.63788H34.2656V23.6074C34.2656 25.4103 32.7914 26.8846 30.9885 26.8846H12.9193Z" fill="#787E99"/>
<path d="M28.0101 11.7838H10.7478C10.2 11.7838 9.75171 12.232 9.75171 12.7799C9.75171 13.3277 10.2 13.776 10.7478 13.776H28.0101C28.558 13.776 29.0062 13.3277 29.0062 12.7799C29.0062 12.232 28.558 11.7838 28.0101 11.7838Z" fill="#787E99"/>
<path d="M28.0101 18.7564H10.7478C10.2 18.7564 9.75171 19.2047 9.75171 19.7525C9.75171 20.3004 10.2 20.7486 10.7478 20.7486H28.0101C28.558 20.7486 29.0062 20.3004 29.0062 19.7525C29.0062 19.2047 28.558 18.7564 28.0101 18.7564Z" fill="#787E99"/>
</svg>
