<svg width="65" height="65" viewBox="0 0 65 65" fill="none" xmlns="http://www.w3.org/2000/svg">
<path d="M32.1154 54.1971C31.6604 51.0128 27.7882 50.0561 27.3501 49.9586L26.8349 49.8448C25.9702 49.6559 24.3608 49.3045 23.6079 49.0716C23.3702 48.9978 22.3011 48.2212 22.096 47.8806C23.4217 47.1859 24.4305 46.0545 25.1333 44.7031H25.9926C26.843 44.7031 27.6392 44.3266 28.1782 43.6712C28.7171 43.0144 28.9325 42.1606 28.77 41.3285C28.5323 40.1158 27.5302 39.218 26.327 39.0731V37.0365C26.327 35.5536 25.7495 34.1602 24.702 33.1107C23.6546 32.0619 22.2598 31.4844 20.7756 31.4844H17.1458C15.6616 31.4844 14.2675 32.0619 13.2194 33.1107C12.1713 34.1595 11.5937 35.5536 11.5937 37.0365L11.5957 39.0731C10.3919 39.2167 9.38845 40.1152 9.1508 41.3298C8.9883 42.1606 9.20361 43.0144 9.74257 43.6712C10.2808 44.3266 11.0771 44.7031 11.9275 44.7031H12.7779C13.4807 46.0505 14.4923 47.1853 15.8241 47.8813C15.6183 48.2226 14.5614 48.9944 14.3136 49.0716C13.5586 49.3039 11.9492 49.6559 11.0852 49.8448L10.5713 49.9586C10.1312 50.0561 6.25897 51.0128 5.80465 54.1971L5.43835 56.7579C5.34965 57.3774 5.53449 58.0037 5.94413 58.477C6.35444 58.9503 6.95028 59.2224 7.57725 59.2224H30.3415C30.9691 59.2224 31.565 58.9503 31.9753 58.477C32.3849 58.0037 32.5691 57.3774 32.4804 56.7592L32.1154 54.1971ZM26.7773 41.7185C26.8233 41.9548 26.7624 42.1965 26.6087 42.3847C26.4577 42.5682 26.2329 42.6739 25.9919 42.6739H25.9255C26.0657 42.1654 26.172 41.6447 26.2444 41.1186C26.5119 41.208 26.7218 41.4321 26.7773 41.7185ZM17.1451 33.5149H20.775C21.7168 33.5149 22.6011 33.8812 23.2653 34.5468C23.8374 35.1196 24.1726 35.8583 24.2592 36.6512L23.6837 36.5286C20.5529 35.8617 17.376 35.859 14.2411 36.5259L13.6608 36.6492C13.7475 35.8563 14.0827 35.119 14.6541 34.5461C15.319 33.8806 16.204 33.5149 17.1451 33.5149ZM11.9275 42.6739C11.6865 42.6739 11.4624 42.5682 11.3114 42.3847C11.1577 42.1972 11.0961 41.9555 11.1428 41.7198C11.199 41.4341 11.4062 41.21 11.6716 41.1193C11.7413 41.644 11.8449 42.1647 11.9851 42.6739H11.9275ZM13.6229 40.3521V38.7319L14.6629 38.5105C17.5175 37.9038 20.41 37.9065 23.2605 38.5132L24.2985 38.7346L24.2999 40.2763C24.0629 43.422 22.3201 46.5962 18.9597 46.5962C15.5993 46.5962 13.8565 43.422 13.6229 40.3521ZM18.9597 48.6247C19.3795 48.6247 19.7742 48.5807 20.1568 48.5171C20.3619 48.9484 20.6118 49.3506 20.9307 49.6959C20.3911 50.1563 19.7031 50.4271 18.9617 50.4271C18.2176 50.4271 17.527 50.1549 16.9867 49.6911C17.2988 49.3499 17.548 48.9491 17.7565 48.5157C18.1411 48.5807 18.5379 48.6247 18.9597 48.6247ZM30.3415 57.1926H7.57793L7.44725 57.0456L7.81356 54.4849C8.08033 52.6168 10.9857 51.9438 11.0168 51.9377C11.0168 51.9377 15.1437 50.8991 15.2642 50.851C16.2087 51.8646 17.5324 52.457 18.9617 52.457C20.3911 52.457 21.7141 51.8653 22.6586 50.8523C22.7791 50.9004 26.9039 51.9377 26.9039 51.9377C26.933 51.9445 29.8391 52.6168 30.1058 54.4849L30.4722 57.0443C30.4722 57.0456 30.3415 57.1926 30.3415 57.1926Z" fill="#657795"/>
<path d="M5.43359 10.5306V18.7294C5.43359 21.3498 7.56573 23.4819 10.186 23.4819H15.7266L21.0295 28.4524C21.3166 28.7205 21.6897 28.862 22.0675 28.862C22.2713 28.862 22.4771 28.8214 22.6721 28.7367C23.2273 28.4964 23.5855 27.9493 23.5855 27.344V23.4819H23.7108C26.3318 23.4819 28.4632 21.3491 28.4632 18.7294V10.5306C28.4632 7.91033 26.3311 5.7782 23.7108 5.7782H10.186C7.56505 5.7782 5.43359 7.91101 5.43359 10.5306ZM26.4347 10.5306V18.7294C26.4347 20.2305 25.2132 21.4527 23.7115 21.4527H22.5713C22.0106 21.4527 21.5563 21.907 21.5563 22.4676V26.1659L16.8215 21.7276C16.6332 21.5509 16.3854 21.4527 16.1274 21.4527H10.1854C8.68359 21.4527 7.46214 20.2305 7.46214 18.7294V10.5306C7.46214 9.02955 8.68359 7.80742 10.1854 7.80742H23.7115C25.2132 7.80742 26.4347 9.02955 26.4347 10.5306Z" fill="#657795"/>
<path d="M54.8309 5.7782H41.3055C38.6845 5.7782 36.553 7.91101 36.553 10.5306V18.7294C36.553 21.3498 38.6852 23.4819 41.3055 23.4819H41.4307V27.344C41.4307 27.9493 41.7896 28.4964 42.3441 28.7367C42.5391 28.8214 42.7443 28.862 42.9488 28.862C43.3273 28.862 43.6997 28.7205 43.9881 28.451L49.2903 23.4819H54.8309C57.4519 23.4819 59.5834 21.3491 59.5834 18.7294V10.5306C59.5834 7.91101 57.4512 5.7782 54.8309 5.7782ZM57.5541 18.7294C57.5541 20.2305 56.3327 21.4527 54.8309 21.4527H48.8888C48.6309 21.4527 48.383 21.5502 48.1948 21.7276L43.46 26.1659V22.4676C43.46 21.9077 43.0056 21.4527 42.445 21.4527H41.3048C39.803 21.4527 38.5816 20.2305 38.5816 18.7294V10.5306C38.5816 9.02955 39.803 7.80742 41.3048 7.80742H54.8302C56.332 7.80742 57.5535 9.02955 57.5535 10.5306V18.7294H57.5541Z" fill="#657795"/>
<path d="M51.4915 11.4874C51.0954 11.0913 50.4529 11.0913 50.0568 11.4874L48.0682 13.476L46.0796 11.4874C45.6835 11.0913 45.0409 11.0913 44.6448 11.4874C44.2488 11.8835 44.2488 12.526 44.6448 12.9221L46.6334 14.9107L44.6448 16.8993C44.2488 17.2954 44.2488 17.938 44.6448 18.334C44.8432 18.5324 45.1026 18.6313 45.3626 18.6313C45.6219 18.6313 45.8819 18.5324 46.0803 18.334L48.0689 16.3455L50.0575 18.334C50.2558 18.5324 50.5152 18.6313 50.7752 18.6313C51.0352 18.6313 51.2945 18.5324 51.4929 18.334C51.889 17.938 51.889 17.2954 51.4929 16.8993L49.5043 14.9107L51.4929 12.9221C51.8876 12.526 51.8876 11.8841 51.4915 11.4874Z" fill="#657795"/>
<path d="M14.3522 18.2474C14.6095 18.5026 14.9473 18.6306 15.2859 18.6306C15.6251 18.6306 15.9643 18.5026 16.2229 18.2447L21.5441 12.9228C21.9402 12.5267 21.9402 11.8841 21.5441 11.488C21.148 11.092 20.5048 11.092 20.1094 11.488L15.2865 16.3123L13.7882 14.8125C13.3921 14.4164 12.7495 14.4164 12.3527 14.8125C11.9566 15.2086 11.9566 15.8512 12.3527 16.2473L14.3522 18.2474Z" fill="#657795"/>
<path d="M57.1601 48.9463C57.7207 48.9463 58.175 48.492 58.175 47.9314V41.5709C58.175 36.1129 53.6819 31.4945 48.3302 31.4857C43.0111 31.4952 38.5179 36.1129 38.5179 41.5709V47.9314C38.5179 48.4913 38.9723 48.9463 39.5329 48.9463C40.0935 48.9463 40.5478 48.492 40.5478 47.9314V41.5709C40.5478 37.2105 44.1134 33.5217 48.36 33.5149C52.5803 33.5217 56.1458 37.2105 56.1458 41.5709V47.9314C56.1451 48.4913 56.5995 48.9463 57.1601 48.9463Z" fill="#657795"/>
<path d="M54.0428 49.8475H51.5017L51.5532 47.7072C52.9188 46.9211 53.9582 45.653 54.4213 44.0842C54.8749 42.5485 54.7591 40.9235 54.0949 39.5057C53.843 38.9681 53.3027 38.6113 52.7008 38.5781L50.3737 38.2294C49.0243 38.0297 47.6579 38.031 46.3152 38.2281L43.9644 38.5781C43.3611 38.6113 42.8195 38.9695 42.5676 39.5071C42.1755 40.3446 41.9684 41.279 41.9684 42.2093C41.9684 44.0815 42.7876 45.8507 44.2163 47.064C44.2718 47.1114 44.3368 47.1439 44.3937 47.1893C44.3937 47.1899 44.393 47.1906 44.393 47.1913V49.8482H41.9155C38.8795 49.8482 36.5009 52.3006 36.5009 55.4321V57.4735C36.5009 58.4383 37.2857 59.2231 38.2498 59.2231H57.7065C58.6713 59.2231 59.4561 58.4383 59.4561 57.4735V55.4321C59.4567 52.2992 57.0788 49.8475 54.0428 49.8475ZM43.9983 42.2086C43.9983 41.6419 44.1046 41.0948 44.3145 40.5769L46.6145 40.2363C47.7595 40.063 48.924 40.0643 50.0737 40.2377L52.3487 40.5775C52.7191 41.4943 52.7651 42.5248 52.4747 43.5093C52.0129 45.0727 50.7122 46.2116 49.0811 46.481C47.7771 46.6964 46.5177 46.3531 45.5305 45.5162C44.5569 44.6902 43.9983 43.4836 43.9983 42.2086ZM48.3458 48.5705C48.6992 48.5705 49.4732 48.4669 49.5043 48.4615L49.4427 51.0128C49.2578 51.5334 48.7893 51.9322 48.2388 52.0236C47.3085 52.1821 46.6037 51.5639 46.4229 50.8503V48.2584C47.0424 48.4527 47.687 48.5705 48.3458 48.5705ZM57.4275 57.1925H38.5315V55.4314C38.5315 53.4042 39.9865 51.8774 41.9162 51.8774H44.6395C45.1981 53.2092 46.4906 54.0799 47.9436 54.0799C48.1522 54.0799 48.3641 54.063 48.5774 54.0258C49.788 53.826 50.7718 52.9919 51.2444 51.8774H54.0421C55.9718 51.8774 57.4269 53.4049 57.4269 55.4314V57.1925H57.4275Z" fill="#657795"/>
</svg>
