<svg width="32" height="23" viewBox="0 0 32 23" fill="none" xmlns="http://www.w3.org/2000/svg">
<path d="M27.1072 1.92621C25.0048 1.01342 22.7853 0.365835 20.5054 0C20.1939 0.529143 19.9116 1.07329 19.6597 1.63024C17.2311 1.28434 14.7616 1.28434 12.333 1.63024C12.0811 1.07329 11.7988 0.529143 11.4873 0C9.2062 0.370029 6.98537 1.01911 4.88039 1.93099C0.702316 7.79317 -0.430294 13.5098 0.136011 19.1452C2.58253 20.86 5.32126 22.1639 8.23291 23C8.88827 22.1637 9.46836 21.2766 9.96706 20.3482C9.02023 20.013 8.10641 19.5992 7.23621 19.1118C7.46525 18.9542 7.68926 18.7919 7.90571 18.6344C10.438 19.7637 13.2018 20.3493 16.0001 20.3493C18.7984 20.3493 21.5622 19.7637 24.0945 18.6344C24.3134 18.8039 24.5375 18.9662 24.764 19.1118C23.8924 19.6005 22.9768 20.015 22.0281 20.3506C22.5259 21.2787 23.106 22.1651 23.7622 23C26.6764 22.1672 29.4172 20.864 31.8642 19.1476C32.5286 12.6123 30.7291 6.94822 27.1072 1.92621ZM10.6844 15.6794C9.10628 15.6794 7.80252 14.3213 7.80252 12.6505C7.80252 10.9797 9.06098 9.60959 10.6793 9.60959C12.2977 9.60959 13.5914 10.9797 13.5637 12.6505C13.536 14.3213 12.2927 15.6794 10.6844 15.6794ZM21.3158 15.6794C19.7352 15.6794 18.4365 14.3213 18.4365 12.6505C18.4365 10.9797 19.6949 9.60959 21.3158 9.60959C22.9367 9.60959 24.2203 10.9797 24.1926 12.6505C24.165 14.3213 22.9241 15.6794 21.3158 15.6794Z" fill="#575D73"/>
</svg>
