<svg width="32" height="23" viewBox="0 0 32 23" fill="none" xmlns="http://www.w3.org/2000/svg">
<path d="M27.1071 1.92621C25.0046 1.01342 22.7851 0.365835 20.5052 0C20.1937 0.529143 19.9115 1.07329 19.6596 1.63024C17.2309 1.28434 14.7615 1.28434 12.3328 1.63024C12.0809 1.07329 11.7987 0.529143 11.4872 0C9.20608 0.370029 6.98525 1.01911 4.88026 1.93099C0.702194 7.79317 -0.430416 13.5098 0.135889 19.1452C2.58241 20.86 5.32114 22.1639 8.23279 23C8.88815 22.1637 9.46824 21.2766 9.96694 20.3482C9.02011 20.013 8.10629 19.5992 7.23609 19.1118C7.46513 18.9542 7.68914 18.7919 7.90559 18.6344C10.4378 19.7637 13.2017 20.3493 16 20.3493C18.7983 20.3493 21.5621 19.7637 24.0944 18.6344C24.3133 18.8039 24.5373 18.9662 24.7639 19.1118C23.8922 19.6005 22.9767 20.015 22.028 20.3506C22.5257 21.2787 23.1059 22.1651 23.7621 23C26.6763 22.1672 29.4171 20.864 31.8641 19.1476C32.5285 12.6123 30.7289 6.94822 27.1071 1.92621ZM10.6843 15.6794C9.10616 15.6794 7.8024 14.3213 7.8024 12.6505C7.8024 10.9797 9.06085 9.60959 10.6792 9.60959C12.2976 9.60959 13.5913 10.9797 13.5636 12.6505C13.5359 14.3213 12.2926 15.6794 10.6843 15.6794ZM21.3157 15.6794C19.7351 15.6794 18.4363 14.3213 18.4363 12.6505C18.4363 10.9797 19.6948 9.60959 21.3157 9.60959C22.9366 9.60959 24.2202 10.9797 24.1925 12.6505C24.1648 14.3213 22.924 15.6794 21.3157 15.6794Z" fill="#787E99"/>
</svg>
