<svg width="27" height="26" viewBox="0 0 27 26" fill="none" xmlns="http://www.w3.org/2000/svg">
<path fill-rule="evenodd" clip-rule="evenodd" d="M13.1244 -0.000347802C10.0367 -0.00140074 7.0494 1.12454 4.69739 3.17589C2.34538 5.22723 0.782252 8.07004 0.287863 11.1953C-0.206526 14.3206 0.400107 17.5243 1.99915 20.2328C3.5982 22.9413 6.08524 24.9777 9.015 25.9775C9.6608 26.1011 9.9019 25.6884 9.9019 25.3374C9.9019 24.9865 9.89114 23.9689 9.88468 22.8542C6.26819 23.6621 5.50615 21.2826 5.50615 21.2826C4.91416 19.7375 4.06171 19.3313 4.06171 19.3313C2.88204 18.5036 4.15211 18.5212 4.15211 18.5212C5.45663 18.6161 6.14333 19.8942 6.14333 19.8942C7.30362 21.9337 9.18506 21.3444 9.92773 20.9978C10.044 20.137 10.3798 19.5498 10.7522 19.2165C7.86547 18.8788 4.8302 17.7354 4.8302 12.6277C4.81085 11.3034 5.29047 10.0226 6.16917 9.05185C6.03355 8.71413 5.58795 7.35884 6.29402 5.52015C6.29402 5.52015 7.38542 5.16257 9.86961 6.88869C12.0007 6.2883 14.2503 6.2883 16.3814 6.88869C18.8613 5.16257 19.9527 5.52015 19.9527 5.52015C20.6588 7.35663 20.2153 8.71192 20.0797 9.05185C20.9576 10.0229 21.4365 11.3037 21.4165 12.6277C21.4165 17.7487 18.377 18.8766 15.4816 19.2055C15.9488 19.6183 16.3642 20.4306 16.3642 21.6733C16.3642 23.4568 16.3491 24.8937 16.3491 25.333C16.3491 25.6862 16.5816 26.1034 17.2404 25.9709C20.169 24.9697 22.6547 22.9325 24.2524 20.2239C25.8501 17.5153 26.4556 14.312 25.9605 11.1875C25.4654 8.06291 23.902 5.22099 21.5502 3.17034C19.1984 1.1197 16.2116 -0.00581164 13.1244 -0.00476001V-0.000347802Z" fill="#575D73"/>
</svg>
