<svg width="41" height="44" viewBox="0 0 41 44" fill="none" xmlns="http://www.w3.org/2000/svg">
<g clip-path="url(#clip0_4946_4964)">
<path d="M31.388 4.95842C29.485 4.95842 27.6442 5.52793 26.0633 6.60427L25.9913 6.65352L25.9185 6.60517C25.0038 6.00163 24.0189 5.50286 22.9919 5.12319L22.9041 5.09095L22.9059 4.95753C22.9059 2.2237 20.7255 -0.000610352 18.0456 -0.000610352C15.3656 -0.000610352 13.1852 2.2237 13.1852 4.95753L13.187 5.08737L13.0992 5.1196C7.36806 7.23288 3.51806 12.8357 3.51806 19.061V25.2835C3.51806 27.4156 2.70434 29.4196 1.22702 30.9266C0.83991 31.3215 0.536193 31.7854 0.322889 32.3074C-0.216076 33.6426 -0.0747516 35.095 0.710874 36.2913C1.48684 37.4733 2.78071 38.178 4.17202 38.178H11.2567L11.2769 38.2873C11.8878 41.5969 14.7345 43.9985 18.0464 43.9985C21.3583 43.9985 24.2077 41.5969 24.8169 38.2873L24.837 38.178H31.9208C34.2171 38.178 36.0851 36.2725 36.0851 33.93C36.0851 32.7955 35.6523 31.7281 34.8658 30.9266C33.3885 29.4196 32.5739 27.4147 32.5739 25.2835V24.4937L32.688 24.4776C37.4272 23.8212 41.0007 19.6448 41.0007 14.7619C41.0007 9.35511 36.689 4.95663 31.3889 4.95663L31.388 4.95842ZM22.3599 38.3544C21.7709 40.2859 20.0373 41.5826 18.0456 41.5826C16.0538 41.5826 14.3211 40.285 13.7312 38.3544L13.6776 38.1798H22.4135L22.3599 38.3544ZM33.1884 32.6379C33.5272 32.9835 33.7142 33.4429 33.7142 33.9318C33.7142 34.941 32.9092 35.7621 31.92 35.7621H4.21152C3.27228 35.7621 2.46997 35.035 2.38483 34.1064C2.33479 33.5602 2.52264 33.0247 2.90273 32.6379C4.82773 30.6741 5.8881 28.0621 5.8881 25.2844V19.0618C5.8881 16.7838 6.51573 14.5505 7.7025 12.6056C8.85592 10.7144 10.5141 9.12498 12.4979 8.00745C13.3941 7.50241 14.3597 7.11826 15.3709 6.86306V5.49301C15.3709 5.41063 15.3744 5.32556 15.3823 5.24228C15.3744 5.16259 15.3709 5.0802 15.3709 4.99693C15.3709 3.49256 16.5709 2.26758 18.0464 2.26758C19.522 2.26758 20.7219 3.49167 20.7219 4.99693C20.7219 5.0802 20.7184 5.16259 20.7105 5.24228C20.7184 5.32556 20.7219 5.41063 20.7219 5.49301V6.8541C21.7902 7.14154 22.8936 7.61076 24.0031 8.24922L24.1418 8.32892L24.0391 8.45249C22.5802 10.2174 21.7771 12.4588 21.7771 14.7637C21.7771 19.6466 25.3506 23.823 30.0898 24.4794L30.2039 24.4955V25.2853C30.2039 28.0621 31.2642 30.6741 33.1893 32.6387L33.1884 32.6379ZM31.3871 22.1512C27.3941 22.1512 24.1453 18.8371 24.1453 14.7637C24.1453 10.6902 27.3941 7.37615 31.3871 7.37615C35.3802 7.37615 38.6289 10.6902 38.6289 14.7637C38.6289 18.8371 35.3802 22.1512 31.3871 22.1512Z" fill="#657795"/>
</g>
<defs>
<clipPath id="clip0_4946_4964">
<rect width="41" height="44" fill="white"/>
</clipPath>
</defs>
</svg>
