<svg width="41" height="44" viewBox="0 0 41 44" fill="none" xmlns="http://www.w3.org/2000/svg">
<g clip-path="url(#clip0_6230_8665)">
<path d="M31.3881 4.95842C29.4851 4.95842 27.6444 5.52793 26.0634 6.60427L25.9915 6.65352L25.9186 6.60517C25.0039 6.00163 24.0191 5.50286 22.992 5.12319L22.9043 5.09095L22.906 4.95753C22.906 2.2237 20.7256 -0.000610352 18.0457 -0.000610352C15.3658 -0.000610352 13.1853 2.2237 13.1853 4.95753L13.1871 5.08737L13.0993 5.1196C7.36819 7.23288 3.51818 12.8357 3.51818 19.061V25.2835C3.51818 27.4156 2.70447 29.4196 1.22714 30.9266C0.840032 31.3215 0.536315 31.7854 0.323011 32.3074C-0.215954 33.6426 -0.0746295 35.095 0.710996 36.2913C1.48697 37.4733 2.78083 38.178 4.17214 38.178H11.2568L11.277 38.2873C11.8879 41.5969 14.7346 43.9985 18.0466 43.9985C21.3585 43.9985 24.2078 41.5969 24.817 38.2873L24.8372 38.178H31.921C34.2173 38.178 36.0852 36.2725 36.0852 33.93C36.0852 32.7955 35.6525 31.7281 34.866 30.9266C33.3886 29.4196 32.574 27.4147 32.574 25.2835V24.4937L32.6882 24.4776C37.4274 23.8212 41.0009 19.6448 41.0009 14.7619C41.0009 9.35511 36.6891 4.95663 31.389 4.95663L31.3881 4.95842ZM22.36 38.3544C21.771 40.2859 20.0374 41.5826 18.0457 41.5826C16.054 41.5826 14.3212 40.285 13.7313 38.3544L13.6778 38.1798H22.4136L22.36 38.3544ZM33.1885 32.6379C33.5273 32.9835 33.7143 33.4429 33.7143 33.9318C33.7143 34.941 32.9094 35.7621 31.9201 35.7621H4.21164C3.2724 35.7621 2.4701 35.035 2.38495 34.1064C2.33492 33.5602 2.52276 33.0247 2.90285 32.6379C4.82785 30.6741 5.88823 28.0621 5.88823 25.2844V19.0618C5.88823 16.7838 6.51585 14.5505 7.70263 12.6056C8.85605 10.7144 10.5142 9.12498 12.498 8.00745C13.3942 7.50241 14.3598 7.11826 15.371 6.86306V5.49301C15.371 5.41063 15.3745 5.32556 15.3824 5.24228C15.3745 5.16259 15.371 5.0802 15.371 4.99693C15.371 3.49256 16.571 2.26758 18.0466 2.26758C19.5221 2.26758 20.7221 3.49167 20.7221 4.99693C20.7221 5.0802 20.7186 5.16259 20.7107 5.24228C20.7186 5.32556 20.7221 5.41063 20.7221 5.49301V6.8541C21.7903 7.14154 22.8937 7.61076 24.0033 8.24922L24.142 8.32892L24.0392 8.45249C22.5804 10.2174 21.7772 12.4588 21.7772 14.7637C21.7772 19.6466 25.3507 23.823 30.0899 24.4794L30.204 24.4955V25.2853C30.204 28.0621 31.2644 30.6741 33.1894 32.6387L33.1885 32.6379ZM31.3873 22.1512C27.3942 22.1512 24.1455 18.8371 24.1455 14.7637C24.1455 10.6902 27.3942 7.37615 31.3873 7.37615C35.3803 7.37615 38.6291 10.6902 38.6291 14.7637C38.6291 18.8371 35.3803 22.1512 31.3873 22.1512Z" fill="#787E99"/>
</g>
<defs>
<clipPath id="clip0_6230_8665">
<rect width="41" height="44" fill="white"/>
</clipPath>
</defs>
</svg>
