<svg width="54" height="56" viewBox="0 0 54 56" fill="none" xmlns="http://www.w3.org/2000/svg">
<path d="M27 55.2228C28.5595 55.222 30.0851 54.7841 31.3914 53.9622C32.6977 53.1404 33.7284 51.9701 34.3581 50.5936C34.4308 50.4409 34.4622 50.2729 34.4493 50.1053C34.4364 49.9376 34.3796 49.7759 34.2842 49.6353C34.1888 49.4947 34.058 49.3797 33.9039 49.3011C33.7499 49.2226 33.5778 49.1831 33.4036 49.1862H20.5964C20.4224 49.1835 20.2506 49.2233 20.0969 49.302C19.9432 49.3808 19.8128 49.4958 19.7177 49.6364C19.6226 49.7769 19.566 49.9385 19.5532 50.1059C19.5404 50.2733 19.5718 50.4411 19.6445 50.5936C20.274 51.9697 21.3042 53.1398 22.61 53.9616C23.9158 54.7834 25.4409 55.2215 27 55.2228Z" fill="url(#paint0_linear_4211_7282)"/>
<path d="M46.6585 41.7149C45.6582 41.7149 44.6989 41.3316 43.9915 40.6492C43.2842 39.9667 42.8868 39.0412 42.8868 38.0761V24.8562C42.8861 21.4473 41.7076 18.1358 39.5378 15.4453C37.3679 12.7549 34.3304 10.839 30.9055 10.0006C30.7799 9.07378 30.3084 8.22297 29.5793 7.60743C28.8503 6.99189 27.9136 6.65383 26.9449 6.65657C25.9761 6.65931 25.0415 7.00265 24.3162 7.6223C23.5909 8.24196 23.1246 9.09543 23.0046 10.0229C19.9501 10.7932 17.2025 12.4233 15.1118 14.7056C13.0211 16.9879 11.682 19.819 11.2651 22.8382C11.2651 22.9301 11.2394 23.0194 11.2291 23.1113C11.2188 23.2031 11.2008 23.3595 11.1905 23.4836C11.1802 23.6077 11.1699 23.7318 11.1596 23.8534C11.1493 23.975 11.1467 24.0594 11.1416 24.1637C11.1416 24.3747 11.1262 24.5832 11.1236 24.7966V38.0736C11.1236 39.034 10.7301 39.9554 10.0289 40.6371C9.32769 41.3187 8.37561 41.7053 7.38021 41.7125C7.14641 41.7098 6.91436 41.7517 6.69732 41.8356C6.48028 41.9195 6.28249 42.0438 6.11525 42.2015C5.94802 42.3591 5.81461 42.547 5.72265 42.7544C5.63069 42.9618 5.58197 43.1847 5.57928 43.4103V43.4251C5.57928 43.8794 5.76632 44.315 6.09923 44.6362C6.43215 44.9574 6.88367 45.1378 7.35449 45.1378H46.6585C47.1173 45.121 47.5515 44.9333 47.8699 44.6142C48.1883 44.2951 48.3661 43.8693 48.3661 43.4264C48.3661 42.9834 48.1883 42.5577 47.8699 42.2386C47.5515 41.9195 47.1173 41.7318 46.6585 41.7149Z" fill="url(#paint1_linear_4211_7282)"/>
<path d="M38.3793 7.40424C40.5495 7.86884 42.5121 8.98302 43.9868 10.5877C45.4616 12.1925 46.3732 14.2057 46.5916 16.34C46.6019 16.4551 46.6358 16.5671 46.6913 16.6695C46.7468 16.772 46.8228 16.8627 46.9149 16.9366C47.0071 17.0105 47.1135 17.066 47.228 17.0999C47.3425 17.1338 47.4628 17.1455 47.5821 17.1343C47.8224 17.1121 48.0442 16.9998 48.1995 16.8215C48.276 16.7327 48.3336 16.6302 48.369 16.5199C48.4043 16.4096 48.4166 16.2936 48.4054 16.1786C48.1673 13.6639 47.1034 11.2882 45.3686 9.39745C43.6337 7.5067 41.3185 6.19968 38.7601 5.66673C38.6974 5.65414 38.6337 5.64749 38.5697 5.64688C38.3451 5.64739 38.1286 5.72795 37.9618 5.87308C37.795 6.01822 37.6897 6.21769 37.6661 6.43318C37.6425 6.64867 37.7023 6.86498 37.8339 7.04055C37.9655 7.21612 38.1598 7.33858 38.3793 7.38438V7.40424Z" fill="url(#paint2_linear_4211_7282)"/>
<path d="M39.4007 1.7375C42.7785 2.45766 45.8337 4.1899 48.1294 6.68649C50.4251 9.18307 51.8436 12.3161 52.1822 15.6375C52.1928 15.7525 52.227 15.8644 52.2826 15.9667C52.3382 16.0689 52.4142 16.1596 52.5063 16.2334C52.5983 16.3072 52.7046 16.3627 52.8189 16.3968C52.9333 16.4308 53.0535 16.4427 53.1727 16.4318C53.4131 16.4097 53.6348 16.2974 53.7902 16.119C53.8667 16.0303 53.9243 15.9278 53.9596 15.8174C53.9949 15.7071 54.0073 15.5911 53.996 15.4762C53.6348 11.7787 52.0627 8.28816 49.5075 5.5105C46.9522 2.73283 43.5466 0.812327 39.7841 0.0273002C39.7214 0.0147022 39.6577 0.00805474 39.5937 0.00744639C39.3689 0.00734404 39.1519 0.0874693 38.9847 0.232406C38.8174 0.377343 38.7116 0.576848 38.6877 0.792517C38.6637 1.00819 38.7233 1.22478 38.8549 1.40062C38.9866 1.57645 39.181 1.6991 39.4007 1.74495V1.7375Z" fill="url(#paint3_linear_4211_7282)"/>
<path d="M15.6182 7.40428C15.8377 7.35848 16.0319 7.23603 16.1636 7.06046C16.2952 6.88488 16.355 6.66858 16.3314 6.45308C16.3077 6.23759 16.2024 6.03812 16.0356 5.89298C15.8689 5.74785 15.6524 5.66729 15.4278 5.66678C15.3638 5.66739 15.3 5.67403 15.2374 5.68663C12.6833 6.21812 10.3712 7.52111 8.63677 9.40646C6.90235 11.2918 5.83586 13.6614 5.59213 16.1712C5.58083 16.2862 5.5932 16.4022 5.62852 16.5125C5.66385 16.6228 5.72142 16.7253 5.79794 16.8141C5.87394 16.9034 5.96775 16.9771 6.07381 17.0309C6.17988 17.0846 6.29603 17.1172 6.41541 17.1269C6.53463 17.1381 6.65498 17.1264 6.7695 17.0925C6.88401 17.0586 6.99042 17.0031 7.08254 16.9292C7.17467 16.8553 7.25069 16.7646 7.3062 16.6621C7.3617 16.5597 7.3956 16.4477 7.40592 16.3326C7.62577 14.1996 8.53808 12.188 10.0127 10.5848C11.4874 8.98155 13.4491 7.86847 15.6182 7.40428Z" fill="url(#paint4_linear_4211_7282)"/>
<path d="M14.5967 1.7375C14.8163 1.6917 15.0105 1.56924 15.1421 1.39367C15.2738 1.2181 15.3335 1.00179 15.3099 0.786298C15.2863 0.570807 15.181 0.371337 15.0142 0.226202C14.8474 0.0810667 14.631 0.000507245 14.4064 0C14.3424 0.000461816 14.2786 0.00711083 14.216 0.0198538C10.4535 0.80488 7.04783 2.72539 4.49257 5.50305C1.93731 8.28071 0.365193 11.7712 0.00405173 15.4687C-0.00724109 15.5837 0.00512896 15.6997 0.040451 15.81C0.075773 15.9203 0.133351 16.0228 0.209873 16.1116C0.285874 16.2009 0.37968 16.2746 0.485741 16.3284C0.591802 16.3821 0.70796 16.4147 0.827333 16.4244C0.946492 16.4353 1.06671 16.4234 1.18109 16.3893C1.29546 16.3553 1.40173 16.2997 1.49378 16.2259C1.58583 16.1521 1.66185 16.0615 1.71746 15.9592C1.77308 15.8569 1.80719 15.7451 1.81785 15.6301C2.15818 12.3105 3.5772 9.17953 5.8722 6.68452C8.1672 4.18951 11.2208 2.45806 14.5967 1.7375Z" fill="url(#paint5_linear_4211_7282)"/>
<defs>
<linearGradient id="paint0_linear_4211_7282" x1="35.6084" y1="36.1227" x2="25.6732" y2="53.628" gradientUnits="userSpaceOnUse">
<stop stop-color="#FF94A6"/>
<stop offset="0.32" stop-color="#E03DC1"/>
<stop offset="1" stop-color="#8247E5"/>
</linearGradient>
<linearGradient id="paint1_linear_4211_7282" x1="40.6305" y1="17.0945" x2="19.5627" y2="48.1276" gradientUnits="userSpaceOnUse">
<stop stop-color="#FF94A6"/>
<stop offset="0.32" stop-color="#E03DC1"/>
<stop offset="1" stop-color="#8247E5"/>
</linearGradient>
<linearGradient id="paint2_linear_4211_7282" x1="58.4417" y1="1.51907" x2="5.93699" y2="37.6444" gradientUnits="userSpaceOnUse">
<stop stop-color="#FF94A6"/>
<stop offset="0.32" stop-color="#E03DC1"/>
<stop offset="1" stop-color="#8247E5"/>
</linearGradient>
<linearGradient id="paint3_linear_4211_7282" x1="57.9374" y1="0.789323" x2="5.43264" y2="36.9122" gradientUnits="userSpaceOnUse">
<stop stop-color="#FF94A6"/>
<stop offset="0.32" stop-color="#E03DC1"/>
<stop offset="1" stop-color="#8247E5"/>
</linearGradient>
<linearGradient id="paint4_linear_4211_7282" x1="48.4131" y1="-13.0536" x2="-4.08912" y2="23.0692" gradientUnits="userSpaceOnUse">
<stop stop-color="#FF94A6"/>
<stop offset="0.32" stop-color="#E03DC1"/>
<stop offset="1" stop-color="#8247E5"/>
</linearGradient>
<linearGradient id="paint5_linear_4211_7282" x1="45.776" y1="-16.886" x2="-6.70618" y2="19.2212" gradientUnits="userSpaceOnUse">
<stop stop-color="#FF94A6"/>
<stop offset="0.32" stop-color="#E03DC1"/>
<stop offset="1" stop-color="#8247E5"/>
</linearGradient>
</defs>
</svg>
