<svg width="43" height="43" viewBox="0 0 43 43" fill="none" xmlns="http://www.w3.org/2000/svg">
<g id="Icon 1">
<path id="Vector" d="M21.4948 36.8802C23.2604 36.8802 24.7757 35.8224 25.4491 34.3071C25.6125 33.9382 25.3399 33.5228 24.9366 33.5228H18.054C17.6506 33.5228 17.3763 33.9373 17.5414 34.3071C18.2148 35.8224 19.7301 36.8802 21.4957 36.8802" fill="url(#paint0_linear_7085_9702)"/>
<path id="Vector_2" d="M32.0548 29.3561C30.9351 29.3561 30.0278 28.4488 30.0278 27.3291V19.9658C30.0278 15.9754 27.2887 12.6257 23.5889 11.6908C23.4531 10.6391 22.5561 9.82465 21.4665 9.82465C20.3768 9.82465 19.473 10.6459 19.3431 11.7037C16.0227 12.5655 13.4891 15.3759 13.0333 18.8417C13.0264 18.8925 13.0195 18.9424 13.0135 18.994C13.0049 19.0628 12.998 19.1307 12.9929 19.2004C12.9877 19.27 12.9817 19.3388 12.9774 19.4076C12.9731 19.4661 12.9688 19.522 12.9662 19.5805C12.9611 19.6966 12.9576 19.8144 12.9576 19.9331V27.3282C12.9576 28.4428 12.0589 29.3466 10.9461 29.3552C10.4155 29.3595 9.97686 29.7689 9.97686 30.3012V30.3098C9.97686 30.8362 10.4043 31.2636 10.9306 31.2636H32.0505C32.5768 31.2636 33.0042 30.8362 33.0042 30.3098C33.0068 29.7844 32.5794 29.357 32.0531 29.357L32.0548 29.3561Z" fill="url(#paint1_linear_7085_9702)"/>
<g id="Group">
<path id="Vector_3" d="M27.6094 10.2383C29.9848 10.7474 31.7985 12.7916 32.0221 15.2117C32.047 15.48 32.281 15.6804 32.5544 15.6537C32.6843 15.6417 32.8021 15.5789 32.8864 15.4791C32.969 15.3785 33.0094 15.2512 32.9973 15.1214C32.8658 13.7084 32.2964 12.4021 31.3496 11.34C30.4096 10.2882 29.1875 9.5761 27.8141 9.28112C27.7797 9.27424 27.7453 9.26994 27.7118 9.26994C27.4865 9.26994 27.2818 9.42732 27.2336 9.65694C27.1769 9.92096 27.3454 10.1807 27.6094 10.2374V10.2383Z" fill="url(#paint2_linear_7085_9702)"/>
<path id="Vector_4" d="M28.1581 7.08898C31.8535 7.88104 34.6778 11.0639 35.0269 14.8273C35.0519 15.0956 35.2858 15.2942 35.5593 15.2693C35.6891 15.2573 35.807 15.1945 35.8912 15.0947C35.9738 14.9941 36.0142 14.8668 36.0022 14.737C35.8104 12.6566 34.9693 10.7294 33.5727 9.16674C32.1872 7.6153 30.3855 6.5661 28.3645 6.1318C28.3301 6.12492 28.2957 6.12062 28.2622 6.12062C28.0369 6.12062 27.8322 6.278 27.784 6.50762C27.7255 6.77164 27.895 7.03136 28.159 7.08812L28.1581 7.08898Z" fill="url(#paint3_linear_7085_9702)"/>
<path id="Vector_5" d="M15.3785 10.2383C15.6425 10.1815 15.8111 9.92011 15.7543 9.65609C15.7045 9.42647 15.5015 9.26909 15.2762 9.26909C15.2426 9.26909 15.2082 9.27339 15.1738 9.28027C13.8013 9.57439 12.5792 10.2865 11.6384 11.3391C10.6915 12.3995 10.1205 13.7075 9.99062 15.1205C9.97858 15.2504 10.0181 15.3777 10.1016 15.4783C10.185 15.5789 10.3037 15.6417 10.4335 15.6529C10.7087 15.6778 10.9409 15.4783 10.9659 15.2108C11.1895 12.7942 13.0049 10.7491 15.3785 10.2392V10.2383Z" fill="url(#paint4_linear_7085_9702)"/>
<path id="Vector_6" d="M14.829 7.08899C15.093 7.03223 15.2616 6.77079 15.2048 6.50677C15.1549 6.27715 14.952 6.11977 14.7266 6.11977C14.6922 6.11977 14.6587 6.12407 14.6243 6.13095C12.6016 6.56525 10.8016 7.61445 9.41614 9.16589C8.0195 10.7294 7.18014 12.6558 6.98664 14.7361C6.9746 14.866 7.01416 14.9932 7.09758 15.0939C7.18014 15.1945 7.29968 15.2573 7.42954 15.2684C7.70302 15.2934 7.93694 15.0939 7.96188 14.8264C8.31018 11.0648 11.1344 7.88363 14.829 7.08985V7.08899Z" fill="url(#paint5_linear_7085_9702)"/>
</g>
</g>
<defs>
<linearGradient id="paint0_linear_7085_9702" x1="26.1208" y1="26.2412" x2="20.4869" y2="35.8181" gradientUnits="userSpaceOnUse">
<stop stop-color="#FF94A6"/>
<stop offset="0.17" stop-color="#EA6AC0"/>
<stop offset="0.33" stop-color="#DA4AD5"/>
<stop offset="0.42" stop-color="#D53EDD"/>
<stop offset="0.53" stop-color="#CB3EDD"/>
<stop offset="0.72" stop-color="#B341E0"/>
<stop offset="0.95" stop-color="#8B45E4"/>
<stop offset="1" stop-color="#8247E5"/>
</linearGradient>
<linearGradient id="paint1_linear_7085_9702" x1="32.213" y1="12.243" x2="15.3011" y2="33.4359" gradientUnits="userSpaceOnUse">
<stop stop-color="#FF94A6"/>
<stop offset="0.17" stop-color="#EA6AC0"/>
<stop offset="0.33" stop-color="#DA4AD5"/>
<stop offset="0.42" stop-color="#D53EDD"/>
<stop offset="0.53" stop-color="#CB3EDD"/>
<stop offset="0.72" stop-color="#B341E0"/>
<stop offset="0.95" stop-color="#8B45E4"/>
<stop offset="1" stop-color="#8247E5"/>
</linearGradient>
<linearGradient id="paint2_linear_7085_9702" x1="38.3904" y1="6.96772" x2="9.53396" y2="26.1216" gradientUnits="userSpaceOnUse">
<stop stop-color="#FF94A6"/>
<stop offset="0.17" stop-color="#EA6AC0"/>
<stop offset="0.33" stop-color="#DA4AD5"/>
<stop offset="0.42" stop-color="#D53EDD"/>
<stop offset="0.53" stop-color="#CB3EDD"/>
<stop offset="0.72" stop-color="#B341E0"/>
<stop offset="0.95" stop-color="#8B45E4"/>
<stop offset="1" stop-color="#8247E5"/>
</linearGradient>
<linearGradient id="paint3_linear_7085_9702" x1="38.1204" y1="6.56008" x2="9.26392" y2="25.714" gradientUnits="userSpaceOnUse">
<stop stop-color="#FF94A6"/>
<stop offset="0.17" stop-color="#EA6AC0"/>
<stop offset="0.33" stop-color="#DA4AD5"/>
<stop offset="0.42" stop-color="#D53EDD"/>
<stop offset="0.53" stop-color="#CB3EDD"/>
<stop offset="0.72" stop-color="#B341E0"/>
<stop offset="0.95" stop-color="#8B45E4"/>
<stop offset="1" stop-color="#8247E5"/>
</linearGradient>
<linearGradient id="paint4_linear_7085_9702" x1="33.0016" y1="-1.15067" x2="4.1452" y2="18.005" gradientUnits="userSpaceOnUse">
<stop stop-color="#FF94A6"/>
<stop offset="0.17" stop-color="#EA6AC0"/>
<stop offset="0.33" stop-color="#DA4AD5"/>
<stop offset="0.42" stop-color="#D53EDD"/>
<stop offset="0.53" stop-color="#CB3EDD"/>
<stop offset="0.72" stop-color="#B341E0"/>
<stop offset="0.95" stop-color="#8B45E4"/>
<stop offset="1" stop-color="#8247E5"/>
</linearGradient>
<linearGradient id="paint5_linear_7085_9702" x1="31.5844" y1="-3.28519" x2="2.74082" y2="15.861" gradientUnits="userSpaceOnUse">
<stop stop-color="#FF94A6"/>
<stop offset="0.17" stop-color="#EA6AC0"/>
<stop offset="0.33" stop-color="#DA4AD5"/>
<stop offset="0.42" stop-color="#D53EDD"/>
<stop offset="0.53" stop-color="#CB3EDD"/>
<stop offset="0.72" stop-color="#B341E0"/>
<stop offset="0.95" stop-color="#8B45E4"/>
<stop offset="1" stop-color="#8247E5"/>
</linearGradient>
</defs>
</svg>
