<svg width="60" height="60" viewBox="0 0 60 60" fill="none" xmlns="http://www.w3.org/2000/svg">
<g clip-path="url(#clip0_4307_8011)">
<path d="M59.1562 0C59.1445 0 59.1328 0 59.1211 0H36.3867C36.375 0 36.3633 0 36.3516 0C35.8711 0.0117188 35.5078 0.410156 35.5078 0.878906V15.2109C35.5078 15.5508 35.707 15.8555 36.0117 16.0078L47.3789 21.4336C47.625 21.5508 47.9062 21.5391 48.1406 21.4336L57.7383 16.8633C58.1719 16.6523 58.3594 16.125 58.1484 15.6914C57.9375 15.2578 57.4102 15.0703 56.9766 15.2812L48.6328 19.2539V6.86719L58.2422 2.27344V14.6602L55.957 15.75C55.5234 15.9609 55.3359 16.4883 55.5469 16.9219C55.7578 17.3555 56.2852 17.543 56.7187 17.332L59.5078 15.9961C59.8125 15.8555 60.0117 15.5391 60.0117 15.1992V0.878906C60 0.421875 59.6367 0.0234375 59.1562 0ZM47.7539 5.33203L40.2656 1.75781H55.2422L47.7539 5.33203ZM37.2656 2.27344L46.875 6.86719V19.2539L37.2656 14.6602V2.27344Z" fill="#657795"/>
<path d="M36.2344 22.9922L24.8672 17.5664C24.6328 17.4492 24.3516 17.4492 24.1055 17.5664L21.2461 18.9375C20.8125 19.1484 20.625 19.6758 20.8359 20.1094C21.0469 20.543 21.5742 20.7305 22.0078 20.5195L24.4922 19.3359L33.8203 23.7891L24.4922 28.2422L15.1641 23.7891L22.9453 20.0742C23.3789 19.8633 23.5664 19.3359 23.3555 18.9023C23.1445 18.4688 22.6172 18.2813 22.1836 18.4922L12.7383 23.0039C12.4336 23.1445 12.2344 23.4609 12.2344 23.8008V38.1328C12.2344 38.4727 12.4336 38.7773 12.7383 38.9297L24.1055 44.3555C24.2109 44.4023 24.3516 44.4375 24.4805 44.4375C24.6094 44.4375 24.7617 44.4023 24.8555 44.3555L36.2227 38.9297C36.5273 38.7891 36.7266 38.4727 36.7266 38.1328V23.7891C36.7383 23.4375 36.5391 23.1328 36.2344 22.9922ZM14.0039 25.1836L23.6133 29.7773V42.1641L14.0039 37.5703V25.1836ZM34.9805 37.5703L25.3711 42.1641V29.7656L34.9805 25.1719V37.5703Z" fill="#657795"/>
<path d="M59.4961 43.9922L48.1289 38.5664C47.8945 38.4492 47.6133 38.4492 47.3672 38.5664L36 43.9922C35.6953 44.1328 35.4961 44.4492 35.4961 44.7891V52.5C35.4961 52.9805 35.8945 53.3789 36.375 53.3789C36.8555 53.3789 37.2539 52.9805 37.2539 52.5V46.1719L46.8633 50.7656V58.2422H37.2539V51.2695C37.2539 50.7891 36.8555 50.3906 36.375 50.3906C35.8945 50.3906 35.4961 50.7891 35.4961 51.2695V59.1211C35.4961 59.6016 35.8945 60 36.375 60H59.1094C59.5898 60 59.9883 59.6016 59.9883 59.1211V44.7773C60 44.4492 59.8125 44.1328 59.4961 43.9922ZM38.4258 44.7773L47.7539 40.3008L57.082 44.7773L47.7539 49.2305L38.4258 44.7773ZM58.2422 58.2422H48.6328V50.7656L58.2422 46.1719V58.2422Z" fill="#657795"/>
</g>
<defs>
<clipPath id="clip0_4307_8011">
<rect width="60" height="60" fill="white"/>
</clipPath>
</defs>
</svg>
