<svg width="125" height="48" viewBox="0 0 125 48" fill="none" xmlns="http://www.w3.org/2000/svg">
<g clip-path="url(#clip0_4323_8710)">
<path d="M22.6282 48C23.9346 48.0009 25.2132 47.623 26.3084 46.9121C27.4037 46.2013 28.2683 45.1882 28.7972 43.9961C28.8555 43.8637 28.8798 43.7188 28.8678 43.5746C28.8558 43.4304 28.8079 43.2915 28.7285 43.1704C28.6491 43.0494 28.5407 42.95 28.4131 42.8813C28.2855 42.8127 28.1427 42.7769 27.9977 42.7772H17.2635C17.1185 42.7769 16.9757 42.8127 16.8481 42.8813C16.7205 42.95 16.6121 43.0494 16.5327 43.1704C16.4533 43.2915 16.4054 43.4304 16.3934 43.5746C16.3814 43.7188 16.4057 43.8637 16.464 43.9961C16.9931 45.1871 17.8571 46.1993 18.9512 46.91C20.0454 47.6207 21.3226 47.9993 22.6282 48Z" fill="url(#paint0_linear_4323_8710)"/>
<path d="M39.097 36.2961C38.682 36.2961 38.2711 36.2145 37.8877 36.056C37.5043 35.8974 37.156 35.665 36.8627 35.3721C36.5694 35.0791 36.3368 34.7314 36.1782 34.3487C36.0196 33.966 35.9381 33.5559 35.9385 33.1418V22.0141C35.9385 16.1855 32.2543 11.0662 27.0279 9.18979C26.765 9.09777 26.5241 8.95217 26.3206 8.76225C26.1171 8.57234 25.9555 8.34225 25.8459 8.08662C25.5849 7.45025 25.1403 6.90561 24.5686 6.52185C23.9969 6.13808 23.3238 5.93248 22.6347 5.93116C21.9457 5.92984 21.2717 6.13286 20.6985 6.51444C20.1253 6.89601 19.6787 7.43895 19.4153 8.07431C19.3082 8.32666 19.1492 8.55373 18.9485 8.74081C18.7479 8.92788 18.5101 9.07078 18.2505 9.16023C15.6418 10.0658 13.3804 11.7594 11.7801 14.0059C10.1798 16.2523 9.32007 18.9402 9.3202 21.6964V33.1393C9.32153 33.9723 8.99238 34.7719 8.40469 35.3634C7.817 35.9549 7.01856 36.2903 6.18386 36.2961C5.98727 36.2939 5.79216 36.3303 5.6097 36.4033C5.42723 36.4764 5.26101 36.5846 5.12051 36.7218C4.98001 36.8591 4.86801 37.0226 4.79091 37.2031C4.71381 37.3835 4.67314 37.5774 4.6712 37.7736C4.6712 38.1654 4.82718 38.5412 5.10485 38.8183C5.38251 39.0954 5.75911 39.251 6.15178 39.251H39.0896C39.4823 39.251 39.8589 39.0954 40.1366 38.8183C40.4142 38.5412 40.5702 38.1654 40.5702 37.7736C40.5702 37.383 40.4152 37.0083 40.1392 36.7315C39.8631 36.4546 39.4884 36.2981 39.097 36.2961Z" fill="url(#paint1_linear_4323_8710)"/>
<path d="M32.1655 6.40973C33.9841 6.81083 35.6292 7.77525 36.8657 9.16522C38.1021 10.5552 38.8667 12.2996 39.0502 14.1491C39.0688 14.3503 39.1668 14.5358 39.3225 14.6649C39.4782 14.7939 39.679 14.856 39.8805 14.8374C40.0821 14.8188 40.268 14.721 40.3974 14.5656C40.5267 14.4102 40.5889 14.2099 40.5702 14.0088C40.3657 11.8331 39.4717 9.77914 38.0181 8.14484C36.5645 6.51053 34.6268 5.38093 32.4863 4.91996C32.4337 4.90815 32.3799 4.90238 32.3259 4.90272C32.1391 4.90562 31.9598 4.97664 31.8218 5.1024C31.6839 5.22816 31.5968 5.39995 31.5771 5.58536C31.5574 5.77077 31.6063 5.95698 31.7147 6.10884C31.8231 6.26071 31.9835 6.36774 32.1655 6.40973Z" fill="url(#paint2_linear_4323_8710)"/>
<path d="M33.0217 1.50696C35.8537 2.12891 38.4159 3.62883 40.3417 5.7921C42.2675 7.95537 43.4583 10.6711 43.7436 13.5507C43.7525 13.6502 43.7811 13.747 43.8277 13.8355C43.8743 13.9239 43.9379 14.0023 44.015 14.0662C44.092 14.13 44.181 14.178 44.2767 14.2075C44.3724 14.2369 44.473 14.2472 44.5727 14.2377C44.6726 14.229 44.7699 14.2007 44.8588 14.1544C44.9478 14.108 45.0266 14.0446 45.0909 13.9676C45.1551 13.8907 45.2034 13.8019 45.2331 13.7062C45.2627 13.6106 45.2731 13.51 45.2636 13.4103C44.9616 10.2047 43.6442 7.17845 41.5025 4.77031C39.3608 2.36217 36.5061 0.697333 33.3524 0.0171963C33.2995 0.00672645 33.2459 0.000960114 33.192 -3.86751e-05C33.0018 -0.00284763 32.8174 0.0653911 32.675 0.191286C32.5327 0.317181 32.4426 0.491637 32.4225 0.680404C32.4024 0.86917 32.4537 1.05862 32.5664 1.21154C32.6791 1.36447 32.845 1.46984 33.0316 1.50696H33.0217Z" fill="url(#paint3_linear_4323_8710)"/>
<path d="M13.0907 6.40967C13.2773 6.37255 13.4432 6.26718 13.5559 6.11425C13.6686 5.96133 13.7199 5.77188 13.6998 5.58311C13.6797 5.39435 13.5897 5.21989 13.4473 5.094C13.3049 4.9681 13.1205 4.89986 12.9303 4.90267C12.8764 4.90245 12.8226 4.90822 12.7699 4.9199C10.6294 5.38088 8.69175 6.51048 7.23813 8.14478C5.78452 9.77909 4.89056 11.8331 4.68598 14.0087C4.66825 14.21 4.73128 14.4102 4.8612 14.5652C4.92433 14.6428 5.00257 14.7069 5.09122 14.7534C5.17987 14.8 5.27707 14.8281 5.37693 14.8361C5.47682 14.8459 5.57767 14.8359 5.67366 14.8066C5.76966 14.7773 5.85889 14.7294 5.93621 14.6655C6.01353 14.6016 6.07738 14.5231 6.12411 14.4345C6.17085 14.3458 6.19955 14.2488 6.20852 14.1491C6.3911 12.2996 7.15505 10.5551 8.39115 9.16501C9.62726 7.77495 11.2722 6.81053 13.0907 6.40967Z" fill="url(#paint4_linear_4323_8710)"/>
<path d="M12.2344 1.50696C12.4209 1.46984 12.5868 1.36447 12.6995 1.21154C12.8122 1.05862 12.8636 0.86917 12.8435 0.680404C12.8234 0.491637 12.7333 0.317181 12.5909 0.191286C12.4486 0.0653911 12.2642 -0.00284763 12.074 -3.86751e-05C12.0209 0.000824887 11.9681 0.00659327 11.9161 0.0171963C8.76233 0.697333 5.90766 2.36217 3.76597 4.77031C1.62428 7.17845 0.306891 10.2047 0.00482715 13.4103C-0.00497642 13.5099 0.0052568 13.6104 0.0349194 13.706C0.064582 13.8015 0.113064 13.8902 0.177549 13.9668C0.240675 14.0444 0.318945 14.1085 0.407593 14.155C0.496242 14.2016 0.593446 14.2297 0.693304 14.2377C0.793195 14.2475 0.894047 14.2375 0.99004 14.2082C1.08603 14.179 1.17524 14.131 1.25256 14.0671C1.32987 14.0032 1.39375 13.9247 1.44049 13.8361C1.48723 13.7474 1.51593 13.6504 1.52489 13.5507C1.80939 10.6728 2.99832 7.95827 4.92176 5.79519C6.84521 3.63212 9.40472 2.13119 12.2344 1.50696Z" fill="url(#paint5_linear_4323_8710)"/>
<path d="M118.453 17.296C117.585 17.2875 116.724 17.4504 115.92 17.7754C115.115 18.1004 114.383 18.581 113.765 19.1896V9.54429C113.765 9.52791 113.762 9.5117 113.755 9.4966C113.749 9.4815 113.74 9.46782 113.728 9.45635C113.716 9.44489 113.702 9.43586 113.687 9.42982C113.672 9.42378 113.655 9.42084 113.639 9.42117H109.901C109.884 9.42084 109.868 9.42378 109.853 9.42982C109.837 9.43586 109.824 9.44489 109.812 9.45635C109.8 9.46782 109.791 9.4815 109.784 9.4966C109.778 9.5117 109.775 9.52791 109.775 9.54429V35.5819C109.775 35.5983 109.778 35.6145 109.784 35.6296C109.791 35.6447 109.8 35.6584 109.812 35.6699C109.824 35.6814 109.837 35.6904 109.853 35.6964C109.868 35.7025 109.884 35.7054 109.901 35.7051H113.639C113.655 35.7054 113.672 35.7025 113.687 35.6964C113.702 35.6904 113.716 35.6814 113.728 35.6699C113.74 35.6584 113.749 35.6447 113.755 35.6296C113.762 35.6145 113.765 35.5983 113.765 35.5819V25.0132C113.763 24.0748 114.119 23.1708 114.76 22.4848C115.402 21.7988 116.281 21.3822 117.22 21.3196C117.71 21.2922 118.202 21.3646 118.663 21.5324C119.125 21.7001 119.548 21.9597 119.907 22.2954C120.265 22.6311 120.551 23.0359 120.748 23.4853C120.945 23.9347 121.048 24.4194 121.052 24.9098V35.5819C121.052 35.6146 121.065 35.6459 121.088 35.669C121.111 35.6921 121.143 35.7051 121.175 35.7051H124.877C124.893 35.7054 124.909 35.7025 124.925 35.6964C124.94 35.6904 124.954 35.6814 124.965 35.6699C124.977 35.6584 124.987 35.6447 124.993 35.6296C124.999 35.6145 125.003 35.5983 125.003 35.5819V23.9347C125.006 22.1908 124.32 20.5159 123.094 19.2731C121.868 18.0304 120.201 17.32 118.453 17.296Z" fill="white"/>
<path d="M90.2213 16.6189H86.5001C86.4671 16.6189 86.4355 16.6318 86.412 16.6548C86.3884 16.6778 86.3749 16.7091 86.3742 16.742V28.3154C86.3703 28.791 86.2697 29.2608 86.0787 29.6966C85.8876 30.1323 85.61 30.5248 85.2627 30.8505C84.9153 31.1762 84.5055 31.4282 84.0578 31.5913C83.6101 31.7545 83.1339 31.8254 82.658 31.7997C81.745 31.7432 80.8883 31.3403 80.2634 30.6737C79.6385 30.0071 79.2928 29.1272 79.2971 28.2144V16.742C79.2964 16.7091 79.2829 16.6778 79.2594 16.6548C79.2358 16.6318 79.2042 16.6189 79.1712 16.6189H75.4501C75.4173 16.6189 75.386 16.6319 75.3628 16.655C75.3397 16.678 75.3267 16.7094 75.3267 16.742V28.1455C75.3228 30.1012 76.0797 31.982 77.4381 33.3917C78.7965 34.8014 80.6502 35.6299 82.6086 35.7027C83.6061 35.7376 84.6005 35.5728 85.5331 35.2181C86.4658 34.8635 87.3178 34.326 88.039 33.6375C88.7603 32.9491 89.336 32.1235 89.7324 31.2094C90.1288 30.2953 90.3378 29.3113 90.3471 28.3154V16.742C90.3465 16.7091 90.3329 16.6778 90.3094 16.6548C90.2859 16.6318 90.2542 16.6189 90.2213 16.6189Z" fill="white"/>
<path d="M65.0195 9.45569H55.5882C55.5191 9.45569 55.4648 9.48031 55.4648 9.54926L55.4969 35.6509C55.4969 35.6673 55.5002 35.6835 55.5065 35.6986C55.5129 35.7137 55.5222 35.7274 55.5339 35.7389C55.5456 35.7503 55.5595 35.7594 55.5748 35.7654C55.59 35.7714 55.6064 35.7744 55.6228 35.7741H59.3242C59.3569 35.7741 59.3883 35.7611 59.4114 35.738C59.4346 35.7149 59.4476 35.6836 59.4476 35.6509V25.1389H65.0368C69.3625 25.1389 72.7506 21.6915 72.7506 17.296C72.7506 12.9006 69.3452 9.45569 65.0195 9.45569ZM64.9528 21.2285H59.6549C59.5894 21.2285 59.5267 21.2026 59.4804 21.1564C59.4341 21.1102 59.4081 21.0476 59.4081 20.9823V16.806C59.4053 16.1782 59.1922 15.5694 58.8027 15.0764C58.4133 14.5834 57.8698 14.2344 57.2588 14.085C57.2312 14.0784 57.2066 14.0626 57.1892 14.0402C57.1717 14.0179 57.1623 13.9903 57.1626 13.9619V13.4818C57.1626 13.4478 57.1761 13.4152 57.2002 13.3912C57.2242 13.3672 57.2569 13.3537 57.2909 13.3537H65.0121C67.0232 13.3537 68.5729 14.8115 68.8246 16.8011C68.9075 17.3526 68.8694 17.9155 68.713 18.4508C68.5565 18.9862 68.2854 19.4812 67.9184 19.9018C67.5514 20.3223 67.0973 20.6583 66.5874 20.8866C66.0775 21.1148 65.524 21.2298 64.9652 21.2236L64.9528 21.2285Z" fill="white"/>
<path d="M92.8666 31.5411C93.5822 33.1072 95.4181 35.7272 99.7093 35.7272C104.613 35.7272 106.806 32.8388 106.806 29.975C106.806 26.833 104.724 24.9394 100.445 24.1809C98.2707 23.8165 97.3404 23.1295 97.3404 21.8884C97.3404 20.7311 98.3743 19.953 99.9117 19.953C101.298 19.953 102.466 20.7286 102.888 21.9229C102.893 21.9361 102.9 21.9481 102.91 21.9583C102.92 21.9684 102.931 21.9765 102.944 21.982C102.97 21.9919 102.998 21.9919 103.023 21.982L106.1 20.6104C106.124 20.6001 106.142 20.5813 106.152 20.558C106.161 20.5346 106.161 20.5084 106.152 20.4848C105.21 18.0594 102.86 16.6115 99.8722 16.6115C95.6402 16.6115 93.4243 19.2856 93.4243 21.9254C93.4243 25.0428 95.465 26.9265 99.6624 27.6776C101.896 28.1282 102.848 28.8374 102.848 30.0514C102.848 31.3638 101.691 32.1469 99.7488 32.1469C99.028 32.1493 98.3211 31.9484 97.7099 31.5671C97.0986 31.1859 96.6078 30.6399 96.2941 29.9923C96.2856 29.9754 96.2725 29.9612 96.2564 29.9512C96.2403 29.9412 96.2218 29.9358 96.2028 29.9356C96.1899 29.9323 96.1763 29.9323 96.1634 29.9356L92.9184 31.3958C92.9041 31.4002 92.8909 31.4079 92.8801 31.4182C92.8692 31.4286 92.8609 31.4414 92.8559 31.4555C92.8509 31.4696 92.8492 31.4847 92.8511 31.4996C92.8529 31.5144 92.8582 31.5287 92.8666 31.5411Z" fill="white"/>
</g>
<defs>
<linearGradient id="paint0_linear_4323_8710" x1="29.8435" y1="31.4452" x2="21.0862" y2="46.3639" gradientUnits="userSpaceOnUse">
<stop stop-color="#FF94A6"/>
<stop offset="0.32" stop-color="#E03DC1"/>
<stop offset="1" stop-color="#8247E5"/>
</linearGradient>
<linearGradient id="paint1_linear_4323_8710" x1="34.0754" y1="14.9346" x2="15.5786" y2="41.2725" gradientUnits="userSpaceOnUse">
<stop stop-color="#FF94A6"/>
<stop offset="0.32" stop-color="#E03DC1"/>
<stop offset="1" stop-color="#8247E5"/>
</linearGradient>
<linearGradient id="paint2_linear_4323_8710" x1="48.9799" y1="1.3199" x2="4.03598" y2="31.215" gradientUnits="userSpaceOnUse">
<stop stop-color="#FF94A6"/>
<stop offset="0.32" stop-color="#E03DC1"/>
<stop offset="1" stop-color="#8247E5"/>
</linearGradient>
<linearGradient id="paint3_linear_4323_8710" x1="48.5579" y1="0.684516" x2="3.61149" y2="30.5795" gradientUnits="userSpaceOnUse">
<stop stop-color="#FF94A6"/>
<stop offset="0.32" stop-color="#E03DC1"/>
<stop offset="1" stop-color="#8247E5"/>
</linearGradient>
<linearGradient id="paint4_linear_4323_8710" x1="40.5776" y1="-11.3124" x2="-4.36881" y2="18.5827" gradientUnits="userSpaceOnUse">
<stop stop-color="#FF94A6"/>
<stop offset="0.32" stop-color="#E03DC1"/>
<stop offset="1" stop-color="#8247E5"/>
</linearGradient>
<linearGradient id="paint5_linear_4323_8710" x1="38.3665" y1="-14.6367" x2="-6.56262" y2="15.2509" gradientUnits="userSpaceOnUse">
<stop stop-color="#FF94A6"/>
<stop offset="0.32" stop-color="#E03DC1"/>
<stop offset="1" stop-color="#8247E5"/>
</linearGradient>
<clipPath id="clip0_4323_8710">
<rect width="125" height="48" fill="white"/>
</clipPath>
</defs>
</svg>
