<svg width="30" height="24" viewBox="0 0 30 24" fill="none" xmlns="http://www.w3.org/2000/svg">
<path d="M30 2.83148C28.8779 3.31868 27.6944 3.64184 26.4844 3.79148C27.7582 3.04572 28.7243 1.85176 29.2031 0.431481C27.99 1.13235 26.6773 1.63443 25.3125 1.91948C24.7286 1.30386 24.0287 0.81621 23.2551 0.486151C22.4815 0.156092 21.6505 -0.00948449 20.8125 -0.000519103C20.0215 -0.0164319 19.2351 0.127398 18.4983 0.422754C17.7616 0.71811 17.0889 1.15921 16.5186 1.72084C15.9484 2.28248 15.4918 2.95366 15.1749 3.69604C14.8581 4.43841 14.6871 5.23744 14.6719 6.04748C14.6698 6.5153 14.717 6.98199 14.8125 7.43948C12.3829 7.33729 10.0002 6.72167 7.81411 5.6313C5.62801 4.54093 3.68576 2.99937 2.10938 1.10348C1.56992 2.01645 1.27861 3.06049 1.26562 4.12748C1.27063 5.13345 1.52217 6.12203 1.99718 7.0026C2.47219 7.88317 3.15547 8.62754 3.98438 9.16748C3.01502 9.14705 2.06537 8.88334 1.21875 8.39948V8.49548C1.24046 9.91736 1.74279 11.2876 2.64021 12.3728C3.53763 13.458 4.77464 14.1912 6.14062 14.4475C5.60436 14.585 5.05274 14.6496 4.5 14.6395C4.10786 14.6314 3.71654 14.5993 3.32812 14.5435C3.74838 15.7692 4.52745 16.8324 5.5592 17.5883C6.59094 18.3442 7.82519 18.7559 9.09375 18.7675C6.89018 20.4599 4.20759 21.3699 1.45312 21.3595C0.967465 21.353 0.482452 21.3209 0 21.2635C2.82929 23.059 6.0933 24.0068 9.42188 23.9995C20.7656 23.9995 26.9531 14.7835 26.9531 6.76748V5.99948C28.1383 5.12979 29.1689 4.05823 30 2.83148Z" fill="#787E99"/>
</svg>
